<?xml version="1.0" encoding="UTF-8"?>
<svg id="Livello_1" data-name="Livello 1" xmlns="http://www.w3.org/2000/svg" viewBox="0 0 85.04 85.04">
  <defs>
    <style>
      .cls-1 {
        fill: #95c11f;
      }

      .cls-1, .cls-2 {
        stroke-width: 0px;
      }

      .cls-2 {
        fill: #36a9e1;
      }
    </style>
  </defs>
  <path class="cls-1" d="m33.2,40.85v-16.09s-10.03.01-10.03.01v6.7s-9.07,0-9.07,0v-6.71c0-5,4.07-9.07,9.07-9.07h10.03c5,0,9.07,4.07,9.07,9.07v7.02c0,5-4.07,9.07-9.07,9.07Z"/>
  <rect class="cls-1" x="14.11" y="31.78" width="9.08" height="18.62"/>
  <path class="cls-1" d="m14.08,50.32v-9.08h19.12c5,0,9.07,4.07,9.07,9.07H14.08Z"/>
  <path class="cls-1" d="m33.05,69.34h-9.87c-5,0-9.07-4.07-9.07-9.07v-9.61h9.08v9.61l18.93-.03v.03c0,5-4.07,9.07-9.07,9.07Z"/>
  <path class="cls-1" d="m61.89,69.34h-10.06c-5,0-9.07-4.07-9.07-9.07v-25.63h9.08v25.63h10.05s-.01-10.62-.01-10.62h9.08v10.62c0,5-4.07,9.07-9.07,9.07Z"/>
  <g>
    <path class="cls-2" d="m32.79,40.91h-9.07v-6.57c0-5,4.07-9.07,9.07-9.07v15.64Z"/>
    <path class="cls-2" d="m42.27,59.75h-9.48c-5,0-9.07-4.08-9.07-9.08h9.08s9.47,0,9.47,0v9.08Z"/>
    <path class="cls-2" d="m52.21,59.75v-9.08s0,0,0,0v-1.06s9.07,0,9.07,0v1.07c0,5-4.07,9.07-9.07,9.07Z"/>
    <path class="cls-2" d="m61.28,36.38h-9.08v-2.14h-9.53s0-9.07,0-9.07h9.54c5,0,9.07,4.07,9.07,9.07v2.14Z"/>
  </g>
  <path class="cls-1" d="m70.77,36.44h-9.08v-11.61l-18.93.02v-.02c0-5,4.07-9.07,9.07-9.07h9.87c5,0,9.07,4.07,9.07,9.07v11.61Z"/>
</svg>